<?xml version="1.0" encoding="UTF-8"?>
<svg id="Layer_2" data-name="Layer 2" xmlns="http://www.w3.org/2000/svg" viewBox="0 0 372.29 108.57">
  <defs>
    <style>
      .cls-1, .cls-2 {
        fill: #27aae1;
      }

      .cls-3 {
        font-family: Phosphate-Inline, Phosphate;
        font-size: 72px;
      }

      .cls-2 {
        fill-rule: evenodd;
      }
    </style>
  </defs>
  <g id="Layer_1-2" data-name="Layer 1">
    <g>
      <path class="cls-2" d="M1.55,0H50.81c5.14,1.48,7.67,4.65,7.58,9.51,.04,41.19,.06,61.79,.06,61.79-.59,4.82-2.75,7.56-6.47,8.23l-3.97-.02v-.07l-45.42-.17c-3.7,.05-3.13-3.95-.14-3.74l48.15,.2c2.5-.54,3.65-2.44,3.43-5.68-.22-1.69-1.3-2.86-3.22-3.51H1.09c-.37,0-.68-.2-.67-.53V.94C.42,.41,.55-.02,1.55,0"/>
      <text class="cls-3" transform="translate(66.75 78.31)"><tspan class="cls-1" x="0" y="0">oo</tspan><tspan x="106.56" y="0">kman</tspan></text>
    </g>
  </g>
</svg>