<svg width="60" height="14" viewBox="0 0 60 14" fill="none" xmlns="http://www.w3.org/2000/svg">
<path fill-rule="evenodd" clip-rule="evenodd" d="M0.237366 0.000109609H7.82344C8.615 0.242029 9.00462 0.760194 8.99076 1.5546C8.99692 8.28748 9 11.6547 9 11.6547C8.90914 12.4426 8.5765 12.8905 8.00362 13L7.39223 12.9967V12.9853L0.397527 12.9575C-0.172275 12.9657 -0.084495 12.3118 0.375967 12.3462L7.7911 12.3789C8.1761 12.2906 8.3532 11.98 8.31932 11.4504C8.28544 11.1742 8.11912 10.9829 7.82344 10.8767H0.166526C0.109546 10.8767 0.0618056 10.844 0.0633456 10.79V0.153761C0.0633456 0.0671278 0.0833657 -0.00315957 0.237366 0.000109609Z" fill="#27AAE1"/>
<path d="M10.24 9.004C10.24 8.428 10.348 7.884 10.564 7.372C10.788 6.86 11.088 6.416 11.464 6.04C11.848 5.656 12.296 5.356 12.808 5.14C13.32 4.916 13.864 4.804 14.44 4.804C15.016 4.804 15.56 4.916 16.072 5.14C16.584 5.356 17.028 5.656 17.404 6.04C17.788 6.416 18.088 6.86 18.304 7.372C18.528 7.884 18.64 8.428 18.64 9.004C18.64 9.58 18.528 10.124 18.304 10.636C18.088 11.148 17.788 11.596 17.404 11.98C17.028 12.356 16.584 12.656 16.072 12.88C15.56 13.096 15.016 13.204 14.44 13.204C13.864 13.204 13.32 13.096 12.808 12.88C12.296 12.656 11.848 12.356 11.464 11.98C11.088 11.596 10.788 11.148 10.564 10.636C10.348 10.124 10.24 9.58 10.24 9.004ZM11.368 9.004C11.368 9.428 11.448 9.828 11.608 10.204C11.768 10.572 11.988 10.896 12.268 11.176C12.548 11.456 12.872 11.676 13.24 11.836C13.616 11.996 14.016 12.076 14.44 12.076C14.864 12.076 15.26 11.996 15.628 11.836C16.004 11.676 16.332 11.456 16.612 11.176C16.892 10.896 17.112 10.572 17.272 10.204C17.432 9.828 17.512 9.428 17.512 9.004C17.512 8.58 17.432 8.184 17.272 7.816C17.112 7.44 16.892 7.112 16.612 6.832C16.332 6.552 16.004 6.332 15.628 6.172C15.26 6.012 14.864 5.932 14.44 5.932C14.016 5.932 13.616 6.012 13.24 6.172C12.872 6.332 12.548 6.552 12.268 6.832C11.988 7.112 11.768 7.44 11.608 7.816C11.448 8.184 11.368 8.58 11.368 9.004ZM12.76 9.004C12.76 9.236 12.804 9.456 12.892 9.664C12.98 9.864 13.1 10.04 13.252 10.192C13.404 10.344 13.58 10.464 13.78 10.552C13.988 10.64 14.208 10.684 14.44 10.684C14.672 10.684 14.888 10.64 15.088 10.552C15.296 10.464 15.476 10.344 15.628 10.192C15.78 10.04 15.9 9.864 15.988 9.664C16.076 9.456 16.12 9.236 16.12 9.004C16.12 8.772 16.076 8.556 15.988 8.356C15.9 8.148 15.78 7.968 15.628 7.816C15.476 7.664 15.296 7.544 15.088 7.456C14.888 7.368 14.672 7.324 14.44 7.324C14.208 7.324 13.988 7.368 13.78 7.456C13.58 7.544 13.404 7.664 13.252 7.816C13.1 7.968 12.98 8.148 12.892 8.356C12.804 8.556 12.76 8.772 12.76 9.004ZM14.44 11.764C14.056 11.764 13.696 11.692 13.36 11.548C13.032 11.404 12.74 11.208 12.484 10.96C12.236 10.704 12.04 10.412 11.896 10.084C11.752 9.748 11.68 9.388 11.68 9.004C11.68 8.62 11.752 8.264 11.896 7.936C12.04 7.6 12.236 7.308 12.484 7.06C12.74 6.804 13.032 6.604 13.36 6.46C13.696 6.316 14.056 6.244 14.44 6.244C14.824 6.244 15.18 6.316 15.508 6.46C15.844 6.604 16.136 6.804 16.384 7.06C16.64 7.308 16.84 7.6 16.984 7.936C17.128 8.264 17.2 8.62 17.2 9.004C17.2 9.388 17.128 9.748 16.984 10.084C16.84 10.412 16.64 10.704 16.384 10.96C16.136 11.208 15.844 11.404 15.508 11.548C15.18 11.692 14.824 11.764 14.44 11.764ZM19.1228 9.004C19.1228 8.428 19.2308 7.884 19.4468 7.372C19.6708 6.86 19.9708 6.416 20.3468 6.04C20.7308 5.656 21.1788 5.356 21.6908 5.14C22.2028 4.916 22.7468 4.804 23.3228 4.804C23.8988 4.804 24.4428 4.916 24.9548 5.14C25.4668 5.356 25.9108 5.656 26.2868 6.04C26.6708 6.416 26.9708 6.86 27.1868 7.372C27.4108 7.884 27.5228 8.428 27.5228 9.004C27.5228 9.58 27.4108 10.124 27.1868 10.636C26.9708 11.148 26.6708 11.596 26.2868 11.98C25.9108 12.356 25.4668 12.656 24.9548 12.88C24.4428 13.096 23.8988 13.204 23.3228 13.204C22.7468 13.204 22.2028 13.096 21.6908 12.88C21.1788 12.656 20.7308 12.356 20.3468 11.98C19.9708 11.596 19.6708 11.148 19.4468 10.636C19.2308 10.124 19.1228 9.58 19.1228 9.004ZM20.2508 9.004C20.2508 9.428 20.3308 9.828 20.4908 10.204C20.6508 10.572 20.8708 10.896 21.1508 11.176C21.4308 11.456 21.7548 11.676 22.1228 11.836C22.4988 11.996 22.8988 12.076 23.3228 12.076C23.7468 12.076 24.1428 11.996 24.5108 11.836C24.8868 11.676 25.2148 11.456 25.4948 11.176C25.7748 10.896 25.9948 10.572 26.1548 10.204C26.3148 9.828 26.3948 9.428 26.3948 9.004C26.3948 8.58 26.3148 8.184 26.1548 7.816C25.9948 7.44 25.7748 7.112 25.4948 6.832C25.2148 6.552 24.8868 6.332 24.5108 6.172C24.1428 6.012 23.7468 5.932 23.3228 5.932C22.8988 5.932 22.4988 6.012 22.1228 6.172C21.7548 6.332 21.4308 6.552 21.1508 6.832C20.8708 7.112 20.6508 7.44 20.4908 7.816C20.3308 8.184 20.2508 8.58 20.2508 9.004ZM21.6428 9.004C21.6428 9.236 21.6868 9.456 21.7748 9.664C21.8628 9.864 21.9828 10.04 22.1348 10.192C22.2868 10.344 22.4628 10.464 22.6628 10.552C22.8708 10.64 23.0908 10.684 23.3228 10.684C23.5548 10.684 23.7708 10.64 23.9708 10.552C24.1788 10.464 24.3588 10.344 24.5108 10.192C24.6628 10.04 24.7828 9.864 24.8708 9.664C24.9588 9.456 25.0028 9.236 25.0028 9.004C25.0028 8.772 24.9588 8.556 24.8708 8.356C24.7828 8.148 24.6628 7.968 24.5108 7.816C24.3588 7.664 24.1788 7.544 23.9708 7.456C23.7708 7.368 23.5548 7.324 23.3228 7.324C23.0908 7.324 22.8708 7.368 22.6628 7.456C22.4628 7.544 22.2868 7.664 22.1348 7.816C21.9828 7.968 21.8628 8.148 21.7748 8.356C21.6868 8.556 21.6428 8.772 21.6428 9.004ZM23.3228 11.764C22.9388 11.764 22.5788 11.692 22.2428 11.548C21.9148 11.404 21.6228 11.208 21.3668 10.96C21.1188 10.704 20.9228 10.412 20.7788 10.084C20.6348 9.748 20.5628 9.388 20.5628 9.004C20.5628 8.62 20.6348 8.264 20.7788 7.936C20.9228 7.6 21.1188 7.308 21.3668 7.06C21.6228 6.804 21.9148 6.604 22.2428 6.46C22.5788 6.316 22.9388 6.244 23.3228 6.244C23.7068 6.244 24.0628 6.316 24.3908 6.46C24.7268 6.604 25.0188 6.804 25.2668 7.06C25.5228 7.308 25.7228 7.6 25.8668 7.936C26.0108 8.264 26.0828 8.62 26.0828 9.004C26.0828 9.388 26.0108 9.748 25.8668 10.084C25.7228 10.412 25.5228 10.704 25.2668 10.96C25.0188 11.208 24.7268 11.404 24.3908 11.548C24.0628 11.692 23.7068 11.764 23.3228 11.764Z" fill="#27AAE1"/>
<path d="M28.1856 4.996H30.7776V6.844L32.2896 4.996H35.4216L32.6016 8.656L35.5656 13H32.4816L30.7776 10.528V13H28.1856V4.996ZM29.6976 12.04V10.42L30.9456 8.872L33.1296 12.04H33.5016L31.1616 8.62L33.3096 5.956H32.9256L29.6976 9.94V5.956H29.3856V12.04H29.6976ZM35.8028 4.996H37.9148L40.0028 8.068L42.0788 4.996H44.1908V13H41.6348V10.12L40.0028 12.52L38.3588 10.12V13H35.8028V4.996ZM37.3148 12.04V6.532L40.0028 10.444L42.6788 6.532V12.04H42.9908V5.956H42.6788L40.0028 9.904L37.3148 5.956H37.0028V12.04H37.3148ZM47.4015 4.996H49.3215L52.3575 13H49.8375L49.5735 12.28H47.1495L46.8855 13H44.3655L47.4015 4.996ZM48.9015 10.516L48.3615 9.112L47.8215 10.516H48.9015ZM46.1535 12.04L46.3815 11.44H50.3415L50.5695 12.04H50.9055L48.5895 5.956H48.1335L45.8175 12.04H46.1535ZM48.3615 6.244L50.2335 11.152H46.4895L48.3615 6.244ZM52.5372 4.996H54.6372L56.8452 8.08V4.996H59.3532V13H57.2412L55.0452 9.928V13H52.5372V4.996ZM53.9652 12.04V6.496L57.9252 12.04H58.2372V5.956H57.9252V11.5L53.9652 5.956H53.6532V12.04H53.9652Z" fill="black"/>
</svg>
